<svg xmlns="http://www.w3.org/2000/svg" width="1.2em" height="1.2em" fill="#fff" viewBox="0 0 22 22"><defs><style></style></defs><path class="a" d="M24,4H6A2,2,0,0,0,4,6V24a2,2,0,0,0,2,2H24a2,2,0,0,0,2-2V6A2,2,0,0,0,24,4ZM10.954,22H8V12.508h2.95ZM9.449,11.151a1.72,1.72,0,1,1,1.719-1.72A1.72,1.72,0,0,1,9.449,11.151ZM22,22H19.056V17.384c0-1.1-.02-2.517-1.533-2.517-1.535,0-1.771,1.2-1.771,2.437V22H12.8V12.508h2.83v1.3h.04a3.1,3.1,0,0,1,2.791-1.533c2.987,0,3.539,1.966,3.539,4.522V22Z" transform="translate(-4 -4)"/></svg>